<svg xmlns="http://www.w3.org/2000/svg" width="2721.221" height="2606.981" viewBox="0 0 2721.221 2606.981">
  <defs>
    <style>
      .cls-1, .cls-2 {
        fill: #4e4b43;
        stroke: #505047;
      }

      .cls-2 {
        stroke-linecap: round;
      }

      .cls-3 {
        fill: #a3b7c9;
      }

      .cls-4, .cls-5 {
        fill: #4f4a49;
      }

      .cls-5 {
        stroke: #4f4a49;
        stroke-width: 10px;
      }
    </style>
  </defs>
  <g id="Group_9" data-name="Group 9" transform="translate(-10269.059 -2368)">
    <path id="Path_22" data-name="Path 22" class="cls-1" d="M6481.048,3216.349H6529.8L6475.8,5465.866h-19.528Z" transform="matrix(0.999, -0.035, 0.035, 0.999, 6259.453, -262.752)"/>
    <path id="Path_23" data-name="Path 23" class="cls-2" d="M6482,3216.349h50.628L6476.546,5458.3h-20.278Z" transform="matrix(0.485, 0.875, -0.875, 0.485, 11913.617, -4759.432)"/>
    <ellipse id="Ellipse_5" data-name="Ellipse 5" class="cls-3" cx="370.5" cy="356" rx="370.5" ry="356" transform="translate(12140 2368)"/>
    <path id="blob" class="cls-4" d="M154.667,60.672c30.027,40.551,71.649,94.037,62.136,143.678-9.216,49.64-69.568,95.086-104.055,77.957-34.487-17.479-43.7-97.883-75.217-162.555S-48.388,6.138-43.929-17.284c4.459-23.072,67.784-20.625,108.812-5.593S124.64,19.771,154.667,60.672Z" transform="translate(12586.605 2451.58) rotate(-9)"/>
    <path id="Path_24" data-name="Path 24" class="cls-2" d="M6482,3216.349h50.628L6476.546,5458.3h-20.278Z" transform="matrix(0.891, 0.454, -0.454, 0.891, 8187.188, -3121.485)"/>
    <path id="Path_25" data-name="Path 25" class="cls-4" d="M3817.986,3132.637s66.832-261.51,265.163-272.954c-.392.182-56.716,11.172-111.9,48.28s-77.25,68.051-74.79,83.037,17.634,44.492,7.191,58.422-52.526,22.33-62.925,37.852S3817.986,3132.637,3817.986,3132.637Z" transform="translate(8339 -457)"/>
    <path id="_" data-name="$" class="cls-5" d="M4341.983,3505.937s-10.265,2.364-28.14,4.635c-49.308,6.264-156.962,11.616-259.8-38.625-10.512-5.135-15.418-10.4-22.677-15.831-16.911-12.648-29.462-25.651-40.4-37.96a164.565,164.565,0,0,1-16.928-22.668c-25.853-41.582-26.17-83.621-65.277-133.021-62.153-78.51-75.179-78.339-81.842,0s57.079,190.951,199.725,260.106S4341.983,3505.937,4341.983,3505.937Z" transform="translate(8350 -495)"/>
    <path id="Path_26" data-name="Path 26" class="cls-3" d="M6473.516,3216.349h33.937l-37.591,2146.426h-13.593Z" transform="matrix(0.891, 0.454, -0.454, 0.891, 8142.283, -3036.066)"/>
    <path id="Path_27" data-name="Path 27" class="cls-3" d="M2086.242,3222.376s1219.818-112.845,1515.069-111.554c23.134.1,12.546,6.818,9.9,8.627-10.179,7.056-219.977,21.537-476.216,40.131-439.28,31.876-1024.927,67.931-1024.927,67.931l-12.527.583-11.3-1.388v-4.33Z" transform="translate(7422.225 1257.43) rotate(-24)"/>
    <path id="Path_28" data-name="Path 28" class="cls-3" d="M2086.242,3222.376s972.677-112.845,1208.109-111.554c18.447.1,10,6.818,7.9,8.627-8.117,7.056-175.409,21.537-379.732,40.131-350.28,31.876-817.271,67.931-817.271,67.931l-9.989.583-9.012-1.388v-4.33Z" transform="matrix(0.07, -0.998, 0.998, 0.07, 9539.434, 6159.973)"/>
  </g>
</svg>
