<svg xmlns="http://www.w3.org/2000/svg" width="320.193" height="763.418" viewBox="0 0 320.193 763.418">
  <defs>
    <style>
      .cls-1 {
        fill: #c95209;
      }

      .cls-2 {
        fill: #e07b16;
      }

      .cls-3 {
        fill: #f29e18;
      }

      .cls-4 {
        fill: #ebce46;
      }

      .cls-5, .cls-9 {
        fill: #d16173;
      }

      .cls-11, .cls-14, .cls-15, .cls-6, .cls-7 {
        fill: none;
      }

      .cls-11, .cls-14, .cls-15, .cls-6, .cls-7, .cls-9 {
        stroke: #000;
      }

      .cls-6 {
        stroke-width: 4px;
      }

      .cls-7 {
        stroke-width: 5px;
      }

      .cls-8 {
        fill: #ebcb4b;
      }

      .cls-9 {
        stroke-width: 7px;
      }

      .cls-10 {
        fill: #dd3d39;
      }

      .cls-12 {
        stroke-linecap: round;
        stroke-linejoin: round;
      }

      .cls-13 {
        fill: #e76077;
      }

      .cls-14 {
        stroke-width: 1.5px;
      }

      .cls-15 {
        stroke-width: 0.5px;
      }

      .cls-16 {
        fill: #b15462;
      }

      .cls-17 {
        fill: #eecf47;
      }

      .cls-18, .cls-19 {
        stroke: none;
      }
    </style>
  </defs>
  <g id="Group_21" data-name="Group 21" transform="translate(-1223.543 -6452.399)">
    <g id="Group_13" data-name="Group 13" transform="translate(1083.458 6164)">
      <g id="Group_12" data-name="Group 12" transform="matrix(0.839, -0.545, 0.545, 0.839, 137.039, 961.303)">
        <path id="Path_209" data-name="Path 209" class="cls-1" d="M51.8,26.477c7.006-11.981,3.181-8.388,15-23.1,3.769-4.689,7.221-8.3,7.221-8.3l64.434,41.844-15.534,23.92L110.6,76.292,98.412,88.765l-10.1,6.957-10.6,6.339L76.339,91.383l-5.818,7.268-8,9.873-7.3,6.638-6.671,4.932-18.171,7.56,2.81-17.535L38.154,98.1l4.783-9.923,6.3-14.4L40.5,74.891S41.728,43.7,51.8,26.477Z" transform="translate(0 0)"/>
      </g>
      <path id="Path_210" data-name="Path 210" class="cls-2" d="M3.542,48.728s.4-7.53,12.756-28.657c3.5-5.983,5.616-10.39,11.52-17.739,1.882-2.342,5.1-5.612,5.1-5.612L72.657,22.53,65,34.326l-5.479,8.436-7.785,9.9-6.884,8.175-8.38,7.881L33.54,63.727l-2.907,2.595-2.938,3.426-3.977,4.946L16.623,82.92,1.225,93.685,3.79,78.328l2.6-8.31,3.394-8.6L14.309,52.5Z" transform="matrix(0.839, -0.545, 0.545, 0.839, 183.658, 937.144)"/>
      <path id="Path_211" data-name="Path 211" class="cls-3" d="M-.307,26.051S-.772,20.69,5.53,9.913A70.041,70.041,0,0,1,11.908.091,45.119,45.119,0,0,1,15.26-3.294L38.234,12.452l-4.046,6.23-4.575,5.243-4.756,5.353-4.052,4.252-4.264,3.461-2.266-4.749-1.522,1.264L10.877,35.22,7.431,39.011,4.2,41.589l-5.481,3.828.741-5.589L.684,35.74l1.539-3.53,3.56-5.482Z" transform="matrix(0.839, -0.545, 0.545, 0.839, 208.401, 926.303)"/>
    </g>
    <g id="Group_14" data-name="Group 14" transform="translate(1346.294 7045.762)">
      <g id="Group_12-2" data-name="Group 12" transform="matrix(-0.839, -0.545, 0.545, -0.839, 90.638, 170.054)">
        <path id="Path_209-2" data-name="Path 209" class="cls-1" d="M21.414,101.177c7.006,11.981,3.181,8.388,15,23.1,3.769,4.689,7.221,8.3,7.221,8.3l64.434-41.844L92.539,66.819,80.219,51.363,68.029,38.89l-10.1-6.957-10.6-6.339L45.956,36.271,40.139,29l-8-9.873-7.3-6.638L18.171,7.56,0,0,2.81,17.535,7.771,29.55l4.783,9.923,6.3,14.4-8.735-1.11S11.345,83.958,21.414,101.177Z" transform="translate(0)"/>
      </g>
      <path id="Path_210-2" data-name="Path 210" class="cls-2" d="M2.316,44.957s.4,7.53,12.756,28.657c3.5,5.983,5.616,10.39,11.52,17.739,1.882,2.341,5.1,5.612,5.1,5.612l39.743-25.81-7.661-11.8-5.479-8.436-7.785-9.9-6.884-8.175-8.38-7.881-2.928,4.988-2.907-2.595-2.938-3.426-3.977-4.946L15.4,10.766,0,0,2.565,15.357l2.6,8.31,3.394,8.6,4.524,8.918Z" transform="matrix(-0.839, -0.545, 0.545, -0.839, 86.973, 133.286)"/>
      <path id="Path_211-2" data-name="Path 211" class="cls-3" d="M.976,19.366S.511,24.727,6.813,35.5a70.041,70.041,0,0,0,6.378,9.822,45.119,45.119,0,0,0,3.351,3.385L39.518,32.965l-4.046-6.23L30.9,21.491l-4.756-5.353-4.052-4.252L17.825,8.425l-2.266,4.749L14.037,11.91,12.161,10.2,8.715,6.406,5.481,3.828,0,0,.741,5.589,1.967,9.677l1.539,3.53,3.56,5.482Z" transform="matrix(-0.839, -0.545, 0.545, -0.839, 90.622, 83.329)"/>
    </g>
    <g id="Group_8" data-name="Group 8" transform="translate(771 6485)">
      <path id="Path_1" data-name="Path 1" d="M985.7,412.856l-3,2.766v21.387h84.33V415.622l-3.006-2.766V275.621l-1.871-6.107H985.7Z" transform="translate(-477 159)"/>
      <path id="Path_3" data-name="Path 3" class="cls-4" d="M985.3,417.655h7.815V434.4H985.3Z" transform="translate(-477 159)"/>
      <path id="Path_4" data-name="Path 4" class="cls-4" d="M995.746,434.4h7.616V417.617h-9.486Z" transform="translate(-477 159)"/>
      <path id="Path_5" data-name="Path 5" class="cls-4" d="M1004.414,417.617l1.011,16.315h8.087V417.617Z" transform="translate(-477 159)"/>
      <path id="Path_6" data-name="Path 6" class="cls-4" d="M1014.528,417.617h8.994v16.45h-8.994Z" transform="translate(-477 159)"/>
      <path id="Path_7" data-name="Path 7" class="cls-4" d="M1024.872,417.617h8.407v16.547h-8.407Z" transform="translate(-477 159)"/>
      <path id="Path_8" data-name="Path 8" class="cls-4" d="M1034.985,417.617H1045.1v16.468h-10.117Z" transform="translate(-477 159)"/>
      <rect id="Rectangle_1" data-name="Rectangle 1" class="cls-5" width="55" height="135.8" transform="translate(514 433)"/>
      <path id="Path_9" data-name="Path 9" d="M1000.933,277.1l5.912,52.578,9.568-4.633-1.932,60.975,19.923-75.241-9.015,4.387,4.724-38.066Z" transform="translate(-476 158)"/>
      <path id="Path_2" data-name="Path 2" class="cls-4" d="M1045.213,408.8l3.8,3.149V272.34H988.5V411.949l3.1-2.168V276.289h53.616Z" transform="translate(-477 159)"/>
      <path id="Path_10" data-name="Path 10" class="cls-6" d="M1271.541,283.816H1232.9l3.665-79.178,32.5,19.33Z" transform="translate(-688.103 145)"/>
      <line id="Line_1" data-name="Line 1" class="cls-6" x2="33" y2="21" transform="translate(548.396 368.5)"/>
      <line id="Line_2" data-name="Line 2" class="cls-6" x1="33" y2="21" transform="translate(546.396 368.5)"/>
      <line id="Line_3" data-name="Line 3" class="cls-7" x1="34" y1="20" transform="translate(548.396 388.5)"/>
      <line id="Line_4" data-name="Line 4" class="cls-7" x2="34" y2="20" transform="translate(546.396 408.5)"/>
      <path id="Path_11" data-name="Path 11" d="M1268.634,264.154l3.136,2.932-26.007,17.09h-7.6Z" transform="translate(-690.103 144)"/>
      <path id="Path_12" data-name="Path 12" d="M1064.041,412.856l3,2.766v21.387h-84.33V415.622l3.006-2.766V275.621l1.871-6.107h76.456Z" transform="translate(-363 159)"/>
      <path id="Path_13" data-name="Path 13" class="cls-8" d="M993.117,417.655H985.3V434.4h7.815Z" transform="translate(-290.674 159)"/>
      <path id="Path_14" data-name="Path 14" class="cls-4" d="M1001.491,434.4h-7.616V417.617h9.486Z" transform="translate(-310.493 159)"/>
      <path id="Path_15" data-name="Path 15" class="cls-4" d="M1013.512,417.617l-1.011,16.315h-8.087V417.617Z" transform="translate(-331.181 159)"/>
      <path id="Path_16" data-name="Path 16" class="cls-4" d="M1023.522,417.617h-8.994v16.45h8.994Z" transform="translate(-351.305 159)"/>
      <path id="Path_17" data-name="Path 17" class="cls-4" d="M1033.28,417.617h-8.407v16.547h8.407Z" transform="translate(-371.407 159)"/>
      <path id="Path_18" data-name="Path 18" class="cls-4" d="M1045.1,417.617h-10.117v16.468H1045.1Z" transform="translate(-393.342 159)"/>
      <rect id="Rectangle_2" data-name="Rectangle 2" class="cls-5" width="55" height="135.8" transform="translate(640.745 433)"/>
      <path id="Path_19" data-name="Path 19" d="M1034.4,277.1l-5.912,52.578-9.568-4.633,1.932,60.975-19.923-75.241,9.015,4.387-4.724-38.066Z" transform="translate(-349.592 158)"/>
      <path id="Path_20" data-name="Path 20" class="cls-4" d="M992.3,408.8l-3.8,3.149V272.34h60.509V411.949l-3.1-2.168V276.289H992.3Z" transform="translate(-350.765 159)"/>
      <path id="Path_21" data-name="Path 21" class="cls-6" d="M1232.9,283.816h38.638l-3.665-79.178-32.5,19.33Z" transform="translate(-606.596 145)"/>
      <line id="Line_5" data-name="Line 5" class="cls-6" x1="33" y2="21" transform="translate(628.348 368.5)"/>
      <line id="Line_6" data-name="Line 6" class="cls-6" x2="33" y2="21" transform="translate(630.348 368.5)"/>
      <line id="Line_7" data-name="Line 7" class="cls-7" y1="20" x2="34" transform="translate(627.348 388.5)"/>
      <line id="Line_8" data-name="Line 8" class="cls-7" x1="34" y2="20" transform="translate(629.348 408.5)"/>
      <path id="Path_22" data-name="Path 22" d="M1241.3,264.154l-3.136,2.932,26.007,17.09h7.6Z" transform="translate(-610.086 144)"/>
      <path id="Path_23" data-name="Path 23" class="cls-9" d="M1516.163,237.338v9.134h32.211v-9.134l39.081-22.927-3.618-4.557,3.618-3.7V191.511H1476.907v14.641l3.251,3.7-3.251,6.158Z" transform="translate(-927 130)"/>
      <path id="Path_24" data-name="Path 24" class="cls-4" d="M1514.529,235.9l1.665-1.362,2.755.641,1.709-1.67-38.568-20.872,2.553-3.94h-5.34l-3.853,6.136Z" transform="translate(-929 132)"/>
      <g id="Group_1" data-name="Group 1" transform="translate(-65 -10)">
        <line id="Line_15" data-name="Line 15" class="cls-7" x1="7" y2="58" transform="translate(629.5 273.5)"/>
        <path id="Path_28" data-name="Path 28" d="M1536.738,188.842h5.84l-44.67-45.277-.52,5.565Z" transform="translate(-861 142)"/>
        <path id="Path_29" data-name="Path 29" d="M1492.819,188.088l42.9-41.6-4.128-3.141-38.113,38.648Z" transform="translate(-861 142)"/>
        <path id="Path_30" data-name="Path 30" d="M1494.914,162.97l-.553,6.346,7.167,6.782,3.616-3.215Z" transform="translate(-861 142)"/>
        <path id="Path_31" data-name="Path 31" d="M1501.641,129.553l30.645,15.74-1.919,2.9-31.213-15.957Z" transform="translate(-861 142)"/>
        <path id="Path_32" data-name="Path 32" d="M1525.376,130.931l-27.62,14.749,2.067,2.383,29.7-15.116Z" transform="translate(-861 142)"/>
        <path id="Path_33" data-name="Path 33" d="M1512.806,132.558v55.709h2.593V132.558Z" transform="translate(-861 142)"/>
        <path id="Path_34" data-name="Path 34" d="M1527.608,161.7h-31.751v2.773h31.751Z" transform="translate(-861 142)"/>
        <path id="Path_35" data-name="Path 35" d="M1529.52,146.84h-32.971v2.15h32.971Z" transform="translate(-861 142)"/>
        <path id="Path_36" data-name="Path 36" d="M1529.52,132h4.777l7.92,55.831h-6.547l-3.2-3.4-3.734,3.4H1522Z" transform="translate(-861 142)"/>
        <path id="Path_37" data-name="Path 37" class="cls-10" d="M1531.569,161.206h1.661l-.777-5.945Z" transform="translate(-861 142)"/>
        <path id="Path_38" data-name="Path 38" class="cls-10" d="M1532.23,172.884l2.193,2.162-2.193,2.177-2.358-2.177Z" transform="translate(-861 142)"/>
        <path id="Path_39" data-name="Path 39" d="M1576.552,188.842h-6.087l-6.129-57.355h5.091Z" transform="translate(-861 142)"/>
        <path id="Path_40" data-name="Path 40" d="M1566.107,143.565l-27.592,27.941.615,5.857,28.357-28.4Z" transform="translate(-861 142)"/>
        <path id="Path_41" data-name="Path 41" d="M1536.357,147.381l33.974,33.732v6.012l-33.022-31.915Z" transform="translate(-861 142)"/>
        <path id="Path_42" data-name="Path 42" d="M1558.636,131.786l6.646-.3L1535.8,147.279l-.836-3.848Z" transform="translate(-861 142)"/>
        <path id="Path_43" data-name="Path 43" d="M1534.29,132.049l6.634.318,24.06,12.238-2.192,2.412L1534.775,133.6Z" transform="translate(-861 142)"/>
        <path id="Path_44" data-name="Path 44" d="M1567.487,164.473l-8.264,8.977,3.528,3.244,5.931-6.505Z" transform="translate(-861 142)"/>
        <path id="Path_45" data-name="Path 45" d="M1567.487,161.206l-28.822-.338.484,3.69h28.338Z" transform="translate(-861 142)"/>
        <path id="Path_46" data-name="Path 46" d="M1548.965,132.558h2.85v55.526h-2.85Z" transform="translate(-861 142)"/>
        <path id="Path_47" data-name="Path 47" d="M1563.953,146.84h-26.892v2.036h26.892Z" transform="translate(-861 142)"/>
      </g>
      <path id="Path_25" data-name="Path 25" class="cls-4" d="M1480.726,209.914h-5.548l-1.994-3.3V189.79l114.226.722v16.1l-2.03,3.3h-5.9l3.219-3.9V193.934l-105.208-.144L1477.206,205Z" transform="translate(-925 130)"/>
      <path id="Path_26" data-name="Path 26" class="cls-4" d="M1481.838,236l-1.925-1.455-2.554.919-1.6-1.888,38.014-22.043L1511.8,208.7h5.731l3.658,4.63Z" transform="translate(-857 132)"/>
      <line id="Line_9" data-name="Line 9" class="cls-11" y1="4" x2="5" transform="translate(657.5 320.5)"/>
      <line id="Line_10" data-name="Line 10" class="cls-11" x1="6" y1="5" transform="translate(547.5 319.5)"/>
      <line id="Line_11" data-name="Line 11" class="cls-11" x2="3" transform="translate(547.5 336.5)"/>
      <line id="Line_12" data-name="Line 12" class="cls-11" x2="4" transform="translate(550.5 344.5)"/>
      <line id="Line_13" data-name="Line 13" class="cls-11" x2="3" transform="translate(659.5 336.5)"/>
      <line id="Line_14" data-name="Line 14" class="cls-11" x2="4" transform="translate(655.5 343.5)"/>
      <path id="Path_27" data-name="Path 27" class="cls-11" d="M1451.036,296.726V291.81l1.608-2.025v-5.721l15.373-9.077" transform="translate(-922 132)"/>
      <path id="Path_48" data-name="Path 48" class="cls-11" d="M1734.677,349.242l-6.8-1.827-2.87,1.827v1.471l-2.143.862-.766,2.745-1.977,1.072v5.877l-1.726,2.477" transform="translate(-1188 65)"/>
      <path id="Path_49" data-name="Path 49" class="cls-11" d="M1733.417,345.771l-3.328,2.755v1.659l-2.034,1.036-.659,2.274-2.167,1.3-2.113,5.808v3.314" transform="translate(-1188 65)"/>
      <path id="Path_50" data-name="Path 50" class="cls-11" d="M1733.417,351.667l-4.049,3.448-2.8,5.361v3.14" transform="translate(-1188 65)"/>
      <path id="Path_51" data-name="Path 51" class="cls-11" d="M1468.018,296.726V291.81l-1.608-2.025v-5.721l-15.373-9.077" transform="translate(-785.341 133)"/>
      <path id="Path_52" data-name="Path 52" class="cls-11" d="M1718.393,349.242l6.8-1.827,2.87,1.827v1.471l2.143.862.766,2.745,1.977,1.072v5.877l1.726,2.477" transform="translate(-1053.357 66)"/>
      <path id="Path_53" data-name="Path 53" class="cls-11" d="M1722.524,345.91l3.92,2.616v1.659l2.034,1.036.659,2.274,2.167,1.3,2.113,5.808v3.314" transform="translate(-1056.82 66)"/>
      <path id="Path_54" data-name="Path 54" class="cls-11" d="M1726.564,351.667l4.049,3.448,2.8,5.361v3.14" transform="translate(-1060.268 66)"/>
      <path id="Path_55" data-name="Path 55" d="M1776.219,350.007l1.747,1.083,1.339,1.407,1.983,2.353.847,1.749,1.045,2.463.416,2.965.153,3.367-.891,2.642-.878,1.807-.737,1.553.445,2.741-4.054,5.119v-1.909l2.789-3.91-.416-2.5,2.128-4.913v-4.9l-.891-3.413-1.237-2.007-1.5-2.064-1.368-1.149-1.577-.773Z" transform="translate(-1192 66)"/>
      <path id="Path_56" data-name="Path 56" d="M1739.03,335.224l2.416,1.372,4.994.312,1.83,1.453.929,2.075.826,2.421,1.216,2.085,1.941.548,2.63.307,1.789.529,2.984,1.034.968-.77-4.265-1.648-3.814-.49-1.272-.612-.96-.983-1.761-5.228-1.21-1.034-2.265-.881H1742.5l-1.421-.491-2.046-3.133Z" transform="translate(-1191 67)"/>
      <path id="Path_57" data-name="Path 57" d="M1774.957,352.353l2.746,1.609.68,1.036.8,1.738.67,4.968.209,3.27v3.982l-.69,2.315-1.671,3.2-.25-4.392.93-.624.2-1.8v-2.392l-.431-2.736.233-2.5-.233-1.937-.7-1.735-.362-1.359-1.75-1.036Z" transform="translate(-1192 66)"/>
      <path id="Path_58" data-name="Path 58" d="M1744.545,345.566l13.121-9.356.94.531-2.285,1.345-.818,1.114-10.053,7.044Z" transform="translate(-1192 65)"/>
      <path id="Path_59" data-name="Path 59" d="M1737,342.263l31.724-17.966-1.234-.923-31.053,18.089Z" transform="translate(-1189 65)"/>
      <path id="Path_60" data-name="Path 60" d="M1823.81,350.518l3.329-2.009,6.871-1.878,2-1.485,1.82-.81h3.387l1.622-1.408,2.009-4.659,1.746-1.65,1.825-.833h3.8l2.858-1.823,2.558-2.2v1.263l-2.025,1.874-2.888,1.723H1850.6l-2.541.413-1.832,1.562-.941,2.307-.917,2.029-1.527,1.817-1.622.828h-2.945l-1.526.726-1.24,1.154-7.2,1.851-4.783,3.178Z" transform="translate(-1196 64)"/>
      <path id="Path_61" data-name="Path 61" d="M1820.45,350.213l-2.892,1.537-2.379,2.562-1.406,2.2.378,3.355v3.06l-1.017,1.568-.778,2.642-.984,1.382v2.1l2.779,2.913,1.027,1.726,2.379.787.661,2,1.431,1.293V377.1l-.764-1.846-2.5-1.726-3.251-2.913v-2.482l.638-1.2.378-1.668.725-1.231.84-3.768-.538-2.956,1.208-1.847,1.832-2.053,2.618-1.183Z" transform="translate(-1195 65)"/>
      <path id="Path_62" data-name="Path 62" d="M1820.62,354.056l-2.811,4.244-1.063,4.1-.4,2.529v1.982l1.1,2.206,2.255,1.469v1.931l-3.353-1.931-1.481-2.978v-2.679l.833-4.723,1.05-3.172,1.813-2.98,2.061-2.22Z" transform="translate(-1195 64)"/>
      <path id="Path_63" data-name="Path 63" d="M1837.6,336.834l3.05,2.72,5.465,4.11,3.517,2.133,1.928-.729-7.536-4.66-4.278-3.574-1.152-1.148Z" transform="translate(-1197 67)"/>
      <path id="Path_64" data-name="Path 64" d="M1826.587,324.376l9.99,4.578,22.547,10.81v-.908l-31.984-16.19Z" transform="translate(-1197 67)"/>
      <path id="Path_65" data-name="Path 65" d="M1844.306,294.287l11.877,7.379v-1.448l-10.938-6.866Z" transform="translate(-1196 62)"/>
      <path id="Path_66" data-name="Path 66" d="M1855.505,291.663l-2.137,2.417v4.373l1.145.848v-4.638l1.092-1.316Z" transform="translate(-1196 63)"/>
      <path id="Path_67" data-name="Path 67" d="M1856.183,294.287l-11.877,7.379v-1.448l10.938-6.866Z" transform="translate(-1296 62)"/>
      <path id="Path_68" data-name="Path 68" d="M1852.918,291.864l2.688,2.216v4.373l-1.145.848.333-4.6-1.876-1.256Z" transform="translate(-1303 62)"/>
      <path id="Path_69" data-name="Path 69" d="M1733.452,330.911l-1.532-3.193-3.444-3.881-.357-3.195.677-2.748,1.067-2.877.634-3.314.7-2.464-.321-2.547-.379-1.057-.957-1.521-.441-.695-.3-2.156.3-1.175,1.4-1.716.7-.893.724-.718.912-1.3.9-1.885.486-1.427.983-.895V288.82l-1.75,2.1-.621,1.589-1.223,2.175-2.07,1.677-1.959,3.217-1.233,2.447v2.47l.633,1.142.6,3,.26,3.068-.26,3-.995,2.871-.642,3.386-.61,2.874.276,2.4,1.7,1.482,1.787,1.768.441,1.911.957,2.65,1.423,2.56,1.123,1.266Z" transform="translate(-1189 67)"/>
      <path id="Path_70" data-name="Path 70" d="M1727.084,330.911l1.532-3.193,3.444-3.881.357-3.195-.677-2.748-1.067-2.877-.634-3.314-.7-2.464.321-2.547.379-1.057.957-1.521.441-.695.3-2.156-.3-1.175-1.4-1.716-.7-.893-.724-.718-.912-1.3-.9-1.885-.486-1.427-.983-.895V288.82l1.75,2.1.621,1.589,1.223,2.175,2.07,1.677,1.959,3.217,1.233,2.447v2.47l-.633,1.142-.6,3-.26,3.068.26,3,.995,2.871.642,3.386.61,2.874-.276,2.4-1.7,1.482-1.787,1.768L1731,331.4l-.957,2.65-1.423,2.56-1.123,1.266Z" transform="translate(-1062 65)"/>
      <path id="Path_71" data-name="Path 71" d="M1736.881,267.2l-3.243,3.917-1.426.452-1.811.575-1.961,2.515v2.823l5.2,8.572,1.935,1.373-.366-1.373-5.472-8.572v-2.823l1.654-1.243,2.869-.812,1.316-2.45,1.308-.7V267.2" transform="translate(-1189 70)"/>
      <path id="Path_72" data-name="Path 72" d="M1737.3,263.565l-2.1.627-1.215,1.363-1,2.382-.324,2.758.889,2.862,1.114,2.2.535,2.364,1.217,1.129.887.625.615-.625-1.038-1.589-.464-1.3-.467-1.462-1.286-2.379-.68-1.829v-2.758l1.215-1.6.75-1.34h1.968v-.8Z" transform="translate(-1191 66)"/>
      <path id="Path_73" data-name="Path 73" d="M1733.7,263.857l1.681.335,1.215,1.363,1,2.382.324,2.758-.889,2.862-1.114,2.2-.535,2.364-1.217,1.129-.887.625-.615-.625,1.038-1.589.464-1.3.467-1.462,1.286-2.379.68-1.829v-2.758l-1.215-1.6-.75-1.34h-.931Z" transform="translate(-1070 63)"/>
      <path id="Path_74" data-name="Path 74" d="M1728.44,267.2l3.243,3.917,1.426.452,1.811.575,1.961,2.515v2.823l-5.2,9.29-2.551,1.773-.3-1.3a42.894,42.894,0,0,0,3.453-4.437c1.723-2.547,3.438-5.751,3.438-5.751l-.55-2.667-1.46-.926-2.225-1.006-1.737-2.307-1.308-.7V267.2" transform="translate(-1066 63)"/>
      <path id="Path_75" data-name="Path 75" d="M1740.878,254.626l1.819-1.856,1.991-.546,2.878-.568,2.612-1.038,2.281-1.584-.111,1.584-2.962,1.743-1.82.408-2.878.522-1.991.537-.675,1.311h-1.376Z" transform="translate(-1189 63)"/>
      <path id="Path_76" data-name="Path 76" d="M1744.792,255.489l.33-.931v-5.674l2.852-.554,4.547-4.505h1.014l-.605,2.532h-.665L1749,249.306l-2.671.388v5.8Z" transform="translate(-1189 63)"/>
      <path id="Path_77" data-name="Path 77" d="M1752.228,254.626l-1.819-1.856-1.991-.546-2.878-.568-2.612-1.038-2.281-1.584.111,1.584,2.962,1.743,1.82.408,2.878.522,1.991.537.675,1.311h1.376Z" transform="translate(-1092 63)"/>
      <path id="Path_79" data-name="Path 79" d="M1765.414,255.139l1.427-2.308,2.709-1.062.514-2.007-.748-2.534h0l-.347-2.9,1.1-7.127-1.4-2.491-2.673-3.213-.573-8.928.573-1.34,2.482-6.783v-2.253l-1.628-4.243-.854-2.5v-2.273l1.59-1.516.891.863-1.222,2.064.33,2.7,1.688,4.254v4.516l-2.425,6.014-.552,1.368.552,4.868.2,3.19,3.441,4.075.5,1.056-.924,6.823v2.723l.742,1.609.3,2.471-.615,2.582-1.519.805-1.593.521-.329.982Z" transform="translate(-1189 63)"/>
      <path id="Path_80" data-name="Path 80" d="M1771.1,255.139l-1.427-2.308-2.709-1.062-.514-2.007.748-2.534h0l.347-2.9-1.1-7.127,1.4-2.491,2.673-3.213.573-8.928-.573-1.34-2.482-6.783v-2.253l1.628-4.243.854-2.5v-2.273l-1.59-1.516-.891.863,1.222,2.064-.33,2.7-1.688,4.254v4.516l2.425,6.014.552,1.368-.552,4.868-.2,3.19-3.441,4.075-.5,1.056.924,6.823v2.723l-.742,1.609-.3,2.471.615,2.582,1.519.805,1.593.521.329.982Z" transform="translate(-1135 63)"/>
      <path id="Path_81" data-name="Path 81" d="M1757.582,200.888l-2.412,3.649v3.5l-4.449,3.366v4.051l6.1-4.051,1.572-3.366v-7.15Z" transform="translate(-1191 61)"/>
      <path id="Path_83" data-name="Path 83" d="M1725.712,184.509V239.9h10.069v3.971h12V239.9h3.1V199.266l91.092,1.15V239.9h2.444v3.971h11.722V239.9h10.927l.071-56.682,20.4-16.849v-20h57.3l4.143-38.414v-2.488l-4.143-2.392h-43.425l-1.531-.921-1.225-.544h-2.1l-.605-.708-1.264-.244-.948.244-.589.708-.569.544-.856-.882-.651-.615h-2.651l-2.076,2.677-12.641-.26-37.885.26,1.279-4.147-41.186,18.462-39.843-17.976.737,4.068h-51.134l-1.96-3.191h-3.033l-1.5,1.856-.8-1.393-.95-.463-1.239.463-.864.9-1.141-.572-1.214.572-1.462,1.19-44.438.316-3.536,2.864,19.855,39.974h42.284v21.383Z" transform="translate(-1191 65)"/>
      <path id="Path_84" data-name="Path 84" d="M1753.535,255.489l-.33-.931v-5.674l-2.852-.554-4.547-4.505h-1.564l.573,2.532h1.247l3.266,2.948,2.671.388v5.8Z" transform="translate(-1096 63)"/>
      <path id="Path_85" data-name="Path 85" d="M1751.526,200.888l2.412,3.649v3.5l4.449,3.366v4.051l-6.1-4.051-1.572-3.366v-7.15Z" transform="translate(-1106 62)"/>
      <path id="Path_86" data-name="Path 86" d="M1711.1,171.413l4.261,3.594v2.776l.707,2.421v4.76l2.519,1.946.671.54.566.843,2.336.867,2.035.9,1.174.588v6.131L1723.355,194l-2.236-1.018-1.858-.189-1.074-.643-.337-1.5-4.742-3.231-.707-3.4.707-1.6v-4.643l-2.005-3.723Z" transform="translate(-1190 65)"/>
      <path id="Path_87" data-name="Path 87" d="M1725.371,171.413l-4.261,3.594v2.776l-.707,2.421v4.76l-2.519,1.946-.781.51-.455.873-2.336.867-2.035.9-1.174.588v6.131l2.016-2.782,2.236-1.018,1.748-.5.918-.69.6-1.145,4.742-3.231.707-3.4-.707-1.6v-4.643l2.005-3.723Z" transform="translate(-1035 65)"/>
      <path id="Path_88" data-name="Path 88" class="cls-5" d="M1747.99,171.165l-30.04-25.74-4.969-23.489,52.925-.751L1764,109.208l31.86,12.728,31.891-12.728-1.647,12.728h54.4l-5.236,23.085-30.806,26.853Z" transform="translate(-1191 65)"/>
      <line id="Line_18" data-name="Line 18" class="cls-6" y2="14" transform="translate(579.5 159.5)"/>
      <line id="Line_19" data-name="Line 19" class="cls-6" y2="14" transform="translate(630.5 159.5)"/>
      <line id="Line_20" data-name="Line 20" class="cls-6" x2="24" y2="21" transform="translate(579.5 159.5)"/>
      <line id="Line_21" data-name="Line 21" class="cls-6" x1="24" y2="21" transform="translate(606.5 159.5)"/>
      <path id="Path_109" data-name="Path 109" d="M1814.272,95.179h7.721l-1.527,23.254h-5.14Z" transform="translate(-1213 65)"/>
      <path id="Path_110" data-name="Path 110" d="M1794.242,42.827,1789,47.42l-5.428,48.107h69.842l-6.234-48.107-4.978-5.069Z" transform="translate(-1213 65)"/>
      <line id="Line_22" data-name="Line 22" class="cls-11" x1="17" y2="14" transform="translate(584.5 160.5)"/>
      <path id="Path_89" data-name="Path 89" class="cls-4" d="M1745.535,177.273l1.244-5.3-30.567-25.755-4.872-25.949h53.113l-1.624-12.956,32.927,13.036,33.867-13.115-2.264,13.115,55.119-.159-6.2,26.084-30.607,26.322.887,4.4,35.4-31.115,6.16-29.5-56.016-.138,3.181-15.279-39.529,17.327-38.208-17.327,2.568,15.071h-56.387l6.526,30.178Z" transform="translate(-1191 65)"/>
      <path id="Path_90" data-name="Path 90" class="cls-4" d="M1704.975,106.23h11.205l.343,8.315h-11.548Z" transform="translate(-1190.98 65.331)"/>
      <path id="Path_91" data-name="Path 91" class="cls-4" d="M1717.7,106.561h9.157v8.315H1717.7Z" transform="translate(-1170.619 65)"/>
      <path id="Path_93" data-name="Path 93" class="cls-4" d="M1717.695,106.561h8.985v8.315h-9.215Z" transform="translate(-1191 65)"/>
      <path id="Path_92" data-name="Path 92" class="cls-4" d="M1728.055,106.561h8.451v8.315h-8.451Z" transform="translate(-1191 65)"/>
      <path id="Path_94" data-name="Path 94" class="cls-4" d="M1748.138,106.56v8.346H1759.1l-2.095-8.346Z" transform="translate(-1191 65.001)"/>
      <path id="Path_95" data-name="Path 95" class="cls-4" d="M1835.228,106.772h8.8v8.735H1833.4Z" transform="translate(-1191 65)"/>
      <path id="Path_96" data-name="Path 96" class="cls-4" d="M1845.431,106.772V115.5h8.691v-8.726Z" transform="translate(-1191 65)"/>
      <path id="Path_97" data-name="Path 97" class="cls-4" d="M1845.431,106.772V115.5h8.691v-8.726Z" transform="translate(-1180.631 65)"/>
      <path id="Path_98" data-name="Path 98" class="cls-4" d="M1845.431,106.772V115.5h8.691v-8.726Z" transform="translate(-1170.631 65)"/>
      <path id="Path_99" data-name="Path 99" class="cls-4" d="M1876.01,106.575v9.041h11.426l-.67-9.041Z" transform="translate(-1191 65)"/>
      <line id="Line_16" data-name="Line 16" class="cls-11" x2="6" transform="translate(518.504 211.657) rotate(-3)"/>
      <line id="Line_17" data-name="Line 17" class="cls-11" x2="7.1" y2="4.814" transform="translate(512.4 180.686)"/>
      <path id="Path_100" data-name="Path 100" d="M1429.906,38.271l4.692,4.672-.246.622-4.866-4.757Z" transform="translate(-861 142)"/>
      <path id="Path_101" data-name="Path 101" d="M1434.421,38.367l-5.275,4.616.121.663L1434.727,39Z" transform="translate(-793 142)"/>
      <path id="Path_102" data-name="Path 102" d="M1428.332,24.182l4.361,5.777-.768.642-5.077-7.084Z" transform="translate(-861 142)"/>
      <path id="Path_103" data-name="Path 103" d="M1431.209,24.182l-4.361,5.777.768.642,5.077-7.084Z" transform="translate(-788 142)"/>
      <g id="Group_5" data-name="Group 5">
        <g id="Group_2" data-name="Group 2" transform="translate(-364 -73)">
          <g id="Polygon_1" data-name="Polygon 1" class="cls-12" transform="translate(929 274)">
            <path class="cls-18" d="M 5.657820224761963 9.5 L 5 9.5 L 0 9.5 L -0.6578199863433838 9.5 L -0.4817599952220917 8.866180419921875 L 2.018239974975586 -0.1338199973106384 L 2.5 -1.868149995803833 L 2.981760025024414 -0.1338199973106384 L 5.481760025024414 8.866180419921875 L 5.657820224761963 9.5 Z"/>
            <path class="cls-19" d="M 2.5 0 L 0 9 L 5 9 L 2.5 0 M 2.5 -1 C 2.949209928512573 -1 3.343289852142334 -0.7004604339599609 3.463520050048828 -0.2676401138305664 L 5.963520050048828 8.732359886169434 C 6.047160148620605 9.033450126647949 5.985229969024658 9.356340408325195 5.796130180358887 9.605130195617676 C 5.607029914855957 9.853919982910156 5.3125 10 5 10 L 0 10 C -0.3125 10 -0.607029914855957 9.853919982910156 -0.7961301803588867 9.605130195617676 C -0.9852299690246582 9.356340408325195 -1.047160148620605 9.033450126647949 -0.9635200500488281 8.732359886169434 L 1.536479949951172 -0.2676401138305664 C 1.656709909439087 -0.7004604339599609 2.050790071487427 -1 2.5 -1 Z"/>
          </g>
          <g id="Polygon_2" data-name="Polygon 2" class="cls-12" transform="translate(920.381 283.043) rotate(-67)">
            <path class="cls-18" d="M 5.657820224761963 9.5 L 5 9.5 L 0 9.5 L -0.6578199863433838 9.5 L -0.4817599952220917 8.866180419921875 L 2.018239974975586 -0.1338199973106384 L 2.5 -1.868149995803833 L 2.981760025024414 -0.1338199973106384 L 5.481760025024414 8.866180419921875 L 5.657820224761963 9.5 Z"/>
            <path class="cls-19" d="M 2.5 0 L 0 9 L 5 9 L 2.5 0 M 2.5 -1 C 2.949209928512573 -1 3.343289852142334 -0.7004604339599609 3.463520050048828 -0.2676401138305664 L 5.963520050048828 8.732359886169434 C 6.047160148620605 9.033450126647949 5.985229969024658 9.356340408325195 5.796130180358887 9.605130195617676 C 5.607029914855957 9.853919982910156 5.3125 10 5 10 L 0 10 C -0.3125 10 -0.607029914855957 9.853919982910156 -0.7961301803588867 9.605130195617676 C -0.9852299690246582 9.356340408325195 -1.047160148620605 9.033450126647949 -0.9635200500488281 8.732359886169434 L 1.536479949951172 -0.2676401138305664 C 1.656709909439087 -0.7004604339599609 2.050790071487427 -1 2.5 -1 Z"/>
          </g>
          <g id="Polygon_3" data-name="Polygon 3" class="cls-12" transform="translate(926.878 294.61) rotate(-144)">
            <path class="cls-18" d="M 5.657820224761963 9.5 L 5 9.5 L 0 9.5 L -0.6578199863433838 9.5 L -0.4817599952220917 8.866180419921875 L 2.018239974975586 -0.1338199973106384 L 2.5 -1.868149995803833 L 2.981760025024414 -0.1338199973106384 L 5.481760025024414 8.866180419921875 L 5.657820224761963 9.5 Z"/>
            <path class="cls-19" d="M 2.5 0 L 0 9 L 5 9 L 2.5 0 M 2.5 -1 C 2.949209928512573 -1 3.343289852142334 -0.7004604339599609 3.463520050048828 -0.2676401138305664 L 5.963520050048828 8.732359886169434 C 6.047160148620605 9.033450126647949 5.985229969024658 9.356340408325195 5.796130180358887 9.605130195617676 C 5.607029914855957 9.853919982910156 5.3125 10 5 10 L 0 10 C -0.3125 10 -0.607029914855957 9.853919982910156 -0.7961301803588867 9.605130195617676 C -0.9852299690246582 9.356340408325195 -1.047160148620605 9.033450126647949 -0.9635200500488281 8.732359886169434 L 1.536479949951172 -0.2676401138305664 C 1.656709909439087 -0.7004604339599609 2.050790071487427 -1 2.5 -1 Z"/>
          </g>
          <g id="Polygon_4" data-name="Polygon 4" class="cls-12" transform="translate(939.089 291.833) rotate(146)">
            <path class="cls-18" d="M 5.657820224761963 9.5 L 5 9.5 L 0 9.5 L -0.6578199863433838 9.5 L -0.4817599952220917 8.866180419921875 L 2.018239974975586 -0.1338199973106384 L 2.5 -1.868149995803833 L 2.981760025024414 -0.1338199973106384 L 5.481760025024414 8.866180419921875 L 5.657820224761963 9.5 Z"/>
            <path class="cls-19" d="M 2.5 0 L 0 9 L 5 9 L 2.5 0 M 2.5 -1 C 2.949209928512573 -1 3.343289852142334 -0.7004604339599609 3.463520050048828 -0.2676401138305664 L 5.963520050048828 8.732359886169434 C 6.047160148620605 9.033450126647949 5.985229969024658 9.356340408325195 5.796130180358887 9.605130195617676 C 5.607029914855957 9.853919982910156 5.3125 10 5 10 L 0 10 C -0.3125 10 -0.607029914855957 9.853919982910156 -0.7961301803588867 9.605130195617676 C -0.9852299690246582 9.356340408325195 -1.047160148620605 9.033450126647949 -0.9635200500488281 8.732359886169434 L 1.536479949951172 -0.2676401138305664 C 1.656709909439087 -0.7004604339599609 2.050790071487427 -1 2.5 -1 Z"/>
          </g>
          <g id="Polygon_5" data-name="Polygon 5" class="cls-12" transform="translate(939.874 279) rotate(70)">
            <path class="cls-18" d="M 5.640389919281006 10.5 L 5 10.5 L 0 10.5 L -0.6403899788856506 10.5 L -0.4850699901580811 9.878729820251465 L 2.014930009841919 -0.1212700009346008 L 2.985069990158081 -0.1212700009346008 L 5.48507022857666 9.878729820251465 L 5.640389919281006 10.5 Z"/>
            <path class="cls-19" d="M 2.5 0 L 0 10 L 5 10 L 2.5 0 M 2.5 -1 C 2.958869934082031 -1 3.358850002288818 -0.6877002716064453 3.470139980316162 -0.2425403594970703 L 5.970139980316162 9.75745964050293 C 6.044829845428467 10.05620956420898 5.977709770202637 10.37269973754883 5.788209915161133 10.61540985107422 C 5.598700046539307 10.85812950134277 5.307940006256104 11 5 11 L 0 11 C -0.3079400062561035 11 -0.5987000465393066 10.85812950134277 -0.7882099151611328 10.61540985107422 C -0.9777097702026367 10.37269973754883 -1.044829845428467 10.05620956420898 -0.9701399803161621 9.75745964050293 L 1.529860019683838 -0.2425403594970703 C 1.641149997711182 -0.6877002716064453 2.041130065917969 -1 2.5 -1 Z"/>
          </g>
        </g>
        <path id="Path_104" data-name="Path 104" class="cls-4" d="M1792.344,142.763l-7.712-3.265,6.714.969Z" transform="translate(-1227.079 67.801)"/>
        <path id="Path_105" data-name="Path 105" class="cls-4" d="M1793.008,142.9l-8.376-3.405,7.175,1.238Z" transform="translate(-59.798 -1475.175) rotate(65)"/>
        <path id="Path_106" data-name="Path 106" class="cls-4" d="M8.292-.338.734,3.068l6.29-1.38Z" transform="matrix(-0.996, -0.087, 0.087, -0.996, 577.12, 210.889)"/>
        <path id="Path_107" data-name="Path 107" class="cls-4" d="M1424,71.1l2.507-.139-4.52,6.132Z" transform="translate(-861 142)"/>
        <path id="Path_108" data-name="Path 108" class="cls-4" d="M1424.253,71.1l-2.383-.116,4.4,6.109Z" transform="translate(-853 142)"/>
      </g>
      <g id="Group_7" data-name="Group 7" transform="translate(33 -0.47)">
        <g id="Group_2-2" data-name="Group 2" transform="translate(556.381 201)">
          <g id="Polygon_1-2" data-name="Polygon 1" class="cls-12" transform="translate(12.619 0.47)">
            <path class="cls-18" d="M 8.676980018615723 13.5 L 8 13.5 L -2.384185791015625e-07 13.5 L -0.6769802570343018 13.5 L -0.4778902530670166 12.85295963287354 L 3.522109746932983 -0.147039994597435 L 3.999999761581421 -1.700180053710938 L 4.477889537811279 -0.147039994597435 L 8.477890014648438 12.85295963287354 L 8.676980018615723 13.5 Z"/>
            <path class="cls-19" d="M 3.999999761581421 0 L -4.76837158203125e-07 13 L 8 13 L 3.999999761581421 0 M 3.999999761581421 -1 C 4.438999652862549 -1 4.826669692993164 -0.7136802673339844 4.955780029296875 -0.2940902709960938 L 8.955780029296875 12.70590972900391 C 9.04910945892334 13.00922966003418 8.992929458618164 13.33882999420166 8.804389953613281 13.59409999847412 C 8.615849494934082 13.84937000274658 8.317349433898926 14 8 14 L -4.76837158203125e-07 14 C -0.317349910736084 14 -0.6158499717712402 13.84937000274658 -0.8043904304504395 13.59409999847412 C -0.9929299354553223 13.33882999420166 -1.049109935760498 13.00922966003418 -0.9557805061340332 12.70590972900391 L 3.044219970703125 -0.2940902709960938 C 3.173329830169678 -0.7136802673339844 3.560999870300293 -1 3.999999761581421 -1 Z"/>
          </g>
          <g id="Polygon_2-2" data-name="Polygon 2" class="cls-12" transform="translate(0 13.633) rotate(-67)">
            <path class="cls-18" d="M 8.195480346679688 14.06778430938721 L 7.537660121917725 14.06778430938721 L 2.993774330661836e-07 14.06778430938721 L -0.6578196883201599 14.06778430938721 L -0.4817596971988678 13.43396472930908 L 3.287070274353027 -0.1338154673576355 L 3.768830299377441 -1.86814546585083 L 4.250590324401855 -0.1338154673576355 L 8.019420623779297 13.43396472930908 L 8.195480346679688 14.06778430938721 Z"/>
            <path class="cls-19" d="M 3.768830299377441 4.76837158203125e-06 L 4.76837158203125e-07 13.56778430938721 L 7.537660121917725 13.56778430938721 L 3.768830299377441 4.76837158203125e-06 M 3.768830299377441 -0.999995231628418 C 4.218040466308594 -0.999995231628418 4.612120628356934 -0.7004556655883789 4.73235034942627 -0.2676353454589844 L 8.501180648803711 13.30014419555664 C 8.584819793701172 13.60123443603516 8.522890090942383 13.9241247177124 8.333789825439453 14.17291450500488 C 8.14469051361084 14.4216947555542 7.850160121917725 14.56778430938721 7.537660121917725 14.56778430938721 L 4.76837158203125e-07 14.56778430938721 C -0.3124995231628418 14.56778430938721 -0.607029914855957 14.4216947555542 -0.7961292266845703 14.17291450500488 C -0.9852294921875 13.9241247177124 -1.047160148620605 13.60123443603516 -0.9635200500488281 13.30014419555664 L 2.805310249328613 -0.2676353454589844 C 2.925540447235107 -0.7004556655883789 3.319620132446289 -0.999995231628418 3.768830299377441 -0.999995231628418 Z"/>
          </g>
          <g id="Polygon_3-2" data-name="Polygon 3" class="cls-12" transform="translate(9.794 31.07) rotate(-144)">
            <path class="cls-18" d="M 8.195480346679688 14.06778430938721 L 7.537660121917725 14.06778430938721 L 2.993774330661836e-07 14.06778430938721 L -0.6578196883201599 14.06778430938721 L -0.4817596971988678 13.43396472930908 L 3.287070274353027 -0.1338154673576355 L 3.768830299377441 -1.86814546585083 L 4.250590324401855 -0.1338154673576355 L 8.019420623779297 13.43396472930908 L 8.195480346679688 14.06778430938721 Z"/>
            <path class="cls-19" d="M 3.768830299377441 4.76837158203125e-06 L 4.76837158203125e-07 13.56778430938721 L 7.537660121917725 13.56778430938721 L 3.768830299377441 4.76837158203125e-06 M 3.768830299377441 -0.999995231628418 C 4.218040466308594 -0.999995231628418 4.612120628356934 -0.7004556655883789 4.73235034942627 -0.2676353454589844 L 8.501180648803711 13.30014419555664 C 8.584819793701172 13.60123443603516 8.522890090942383 13.9241247177124 8.333789825439453 14.17291450500488 C 8.14469051361084 14.4216947555542 7.850160121917725 14.56778430938721 7.537660121917725 14.56778430938721 L 4.76837158203125e-07 14.56778430938721 C -0.3124995231628418 14.56778430938721 -0.607029914855957 14.4216947555542 -0.7961292266845703 14.17291450500488 C -0.9852294921875 13.9241247177124 -1.047160148620605 13.60123443603516 -0.9635200500488281 13.30014419555664 L 2.805310249328613 -0.2676353454589844 C 2.925540447235107 -0.7004556655883789 3.319620132446289 -0.999995231628418 3.768830299377441 -0.999995231628418 Z"/>
          </g>
          <g id="Polygon_4-2" data-name="Polygon 4" class="cls-12" transform="translate(28.203 26.883) rotate(146)">
            <path class="cls-18" d="M 8.195480346679688 14.06778430938721 L 7.537660121917725 14.06778430938721 L 2.993774330661836e-07 14.06778430938721 L -0.6578196883201599 14.06778430938721 L -0.4817596971988678 13.43396472930908 L 3.287070274353027 -0.1338154673576355 L 3.768830299377441 -1.86814546585083 L 4.250590324401855 -0.1338154673576355 L 8.019420623779297 13.43396472930908 L 8.195480346679688 14.06778430938721 Z"/>
            <path class="cls-19" d="M 3.768830299377441 4.76837158203125e-06 L 4.76837158203125e-07 13.56778430938721 L 7.537660121917725 13.56778430938721 L 3.768830299377441 4.76837158203125e-06 M 3.768830299377441 -0.999995231628418 C 4.218040466308594 -0.999995231628418 4.612120628356934 -0.7004556655883789 4.73235034942627 -0.2676353454589844 L 8.501180648803711 13.30014419555664 C 8.584819793701172 13.60123443603516 8.522890090942383 13.9241247177124 8.333789825439453 14.17291450500488 C 8.14469051361084 14.4216947555542 7.850160121917725 14.56778430938721 7.537660121917725 14.56778430938721 L 4.76837158203125e-07 14.56778430938721 C -0.3124995231628418 14.56778430938721 -0.607029914855957 14.4216947555542 -0.7961292266845703 14.17291450500488 C -0.9852294921875 13.9241247177124 -1.047160148620605 13.60123443603516 -0.9635200500488281 13.30014419555664 L 2.805310249328613 -0.2676353454589844 C 2.925540447235107 -0.7004556655883789 3.319620132446289 -0.999995231628418 3.768830299377441 -0.999995231628418 Z"/>
          </g>
          <g id="Polygon_5-2" data-name="Polygon 5" class="cls-12" transform="translate(29.386 7.538) rotate(70)">
            <path class="cls-18" d="M 8.168439865112305 16.57532119750977 L 7.537660121917725 16.57532119750977 L 2.993774330661836e-07 16.57532119750977 L -0.6307796835899353 16.57532119750977 L -0.4867996871471405 15.96119022369385 L 3.282030344009399 -0.114129401743412 L 4.255630493164062 -0.114129401743412 L 8.024459838867188 15.96119022369385 L 8.168439865112305 16.57532119750977 Z"/>
            <path class="cls-19" d="M 3.768830299377441 0 L 4.76837158203125e-07 16.07532119750977 L 7.537660121917725 16.07532119750977 L 3.768830299377441 0 M 3.768830299377441 -1 C 4.233180046081543 -1 4.636440277099609 -0.6803493499755859 4.742430210113525 -0.2282600402832031 L 8.511260032653809 15.84706020355225 C 8.580960273742676 16.14436149597168 8.51101016998291 16.45721054077148 8.321320533752441 16.69650077819824 C 8.131640434265137 16.93580055236816 7.843020439147949 17.07532119750977 7.537660121917725 17.07532119750977 L 4.76837158203125e-07 17.07532119750977 C -0.3053598403930664 17.07532119750977 -0.5939798355102539 16.93580055236816 -0.7836599349975586 16.69650077819824 C -0.9733495712280273 16.45721054077148 -1.043299674987793 16.14436149597168 -0.9735994338989258 15.84706020355225 L 2.795230388641357 -0.2282600402832031 C 2.901220321655273 -0.6803493499755859 3.304480075836182 -1 3.768830299377441 -1 Z"/>
          </g>
        </g>
        <path id="Path_104-2" data-name="Path 104" class="cls-4" d="M1796.258,144.42l-11.545-4.582,10.256,1.34Z" transform="translate(-1226.484 70.998)"/>
        <path id="Path_105-2" data-name="Path 105" class="cls-4" d="M13.024,5.915.006.449,11.33,2.028Z" transform="translate(573.885 201.311) rotate(65)"/>
        <path id="Path_106-2" data-name="Path 106" class="cls-4" d="M11.969-.723.093,4.651l9.2-1.893Z" transform="matrix(-0.996, -0.087, 0.087, -0.996, 586.499, 216.319)"/>
        <path id="Path_107-2" data-name="Path 107" class="cls-4" d="M1425.392,71.1l3.584-.352-6.985,9.386Z" transform="translate(-858.66 148.141)"/>
        <path id="Path_108-2" data-name="Path 108" class="cls-4" d="M1425.576,71.1l-3.873-.391,7.063,9.629Z" transform="translate(-847.479 148.141)"/>
      </g>
      <g id="Group_6" data-name="Group 6" transform="translate(77)">
        <g id="Group_2-3" data-name="Group 2" transform="translate(-364 -73)">
          <g id="Polygon_1-3" data-name="Polygon 1" class="cls-12" transform="translate(929 274)">
            <path class="cls-18" d="M 5.657820224761963 9.5 L 5 9.5 L 0 9.5 L -0.6578199863433838 9.5 L -0.4817599952220917 8.866180419921875 L 2.018239974975586 -0.1338199973106384 L 2.5 -1.868149995803833 L 2.981760025024414 -0.1338199973106384 L 5.481760025024414 8.866180419921875 L 5.657820224761963 9.5 Z"/>
            <path class="cls-19" d="M 2.5 0 L 0 9 L 5 9 L 2.5 0 M 2.5 -1 C 2.949209928512573 -1 3.343289852142334 -0.7004604339599609 3.463520050048828 -0.2676401138305664 L 5.963520050048828 8.732359886169434 C 6.047160148620605 9.033450126647949 5.985229969024658 9.356340408325195 5.796130180358887 9.605130195617676 C 5.607029914855957 9.853919982910156 5.3125 10 5 10 L 0 10 C -0.3125 10 -0.607029914855957 9.853919982910156 -0.7961301803588867 9.605130195617676 C -0.9852299690246582 9.356340408325195 -1.047160148620605 9.033450126647949 -0.9635200500488281 8.732359886169434 L 1.536479949951172 -0.2676401138305664 C 1.656709909439087 -0.7004604339599609 2.050790071487427 -1 2.5 -1 Z"/>
          </g>
          <g id="Polygon_2-3" data-name="Polygon 2" class="cls-12" transform="translate(920.381 283.043) rotate(-67)">
            <path class="cls-18" d="M 5.657820224761963 9.5 L 5 9.5 L 0 9.5 L -0.6578199863433838 9.5 L -0.4817599952220917 8.866180419921875 L 2.018239974975586 -0.1338199973106384 L 2.5 -1.868149995803833 L 2.981760025024414 -0.1338199973106384 L 5.481760025024414 8.866180419921875 L 5.657820224761963 9.5 Z"/>
            <path class="cls-19" d="M 2.5 0 L 0 9 L 5 9 L 2.5 0 M 2.5 -1 C 2.949209928512573 -1 3.343289852142334 -0.7004604339599609 3.463520050048828 -0.2676401138305664 L 5.963520050048828 8.732359886169434 C 6.047160148620605 9.033450126647949 5.985229969024658 9.356340408325195 5.796130180358887 9.605130195617676 C 5.607029914855957 9.853919982910156 5.3125 10 5 10 L 0 10 C -0.3125 10 -0.607029914855957 9.853919982910156 -0.7961301803588867 9.605130195617676 C -0.9852299690246582 9.356340408325195 -1.047160148620605 9.033450126647949 -0.9635200500488281 8.732359886169434 L 1.536479949951172 -0.2676401138305664 C 1.656709909439087 -0.7004604339599609 2.050790071487427 -1 2.5 -1 Z"/>
          </g>
          <g id="Polygon_3-3" data-name="Polygon 3" class="cls-12" transform="translate(926.878 294.61) rotate(-144)">
            <path class="cls-18" d="M 5.657820224761963 9.5 L 5 9.5 L 0 9.5 L -0.6578199863433838 9.5 L -0.4817599952220917 8.866180419921875 L 2.018239974975586 -0.1338199973106384 L 2.5 -1.868149995803833 L 2.981760025024414 -0.1338199973106384 L 5.481760025024414 8.866180419921875 L 5.657820224761963 9.5 Z"/>
            <path class="cls-19" d="M 2.5 0 L 0 9 L 5 9 L 2.5 0 M 2.5 -1 C 2.949209928512573 -1 3.343289852142334 -0.7004604339599609 3.463520050048828 -0.2676401138305664 L 5.963520050048828 8.732359886169434 C 6.047160148620605 9.033450126647949 5.985229969024658 9.356340408325195 5.796130180358887 9.605130195617676 C 5.607029914855957 9.853919982910156 5.3125 10 5 10 L 0 10 C -0.3125 10 -0.607029914855957 9.853919982910156 -0.7961301803588867 9.605130195617676 C -0.9852299690246582 9.356340408325195 -1.047160148620605 9.033450126647949 -0.9635200500488281 8.732359886169434 L 1.536479949951172 -0.2676401138305664 C 1.656709909439087 -0.7004604339599609 2.050790071487427 -1 2.5 -1 Z"/>
          </g>
          <g id="Polygon_4-3" data-name="Polygon 4" class="cls-12" transform="translate(939.089 291.833) rotate(146)">
            <path class="cls-18" d="M 5.657820224761963 9.5 L 5 9.5 L 0 9.5 L -0.6578199863433838 9.5 L -0.4817599952220917 8.866180419921875 L 2.018239974975586 -0.1338199973106384 L 2.5 -1.868149995803833 L 2.981760025024414 -0.1338199973106384 L 5.481760025024414 8.866180419921875 L 5.657820224761963 9.5 Z"/>
            <path class="cls-19" d="M 2.5 0 L 0 9 L 5 9 L 2.5 0 M 2.5 -1 C 2.949209928512573 -1 3.343289852142334 -0.7004604339599609 3.463520050048828 -0.2676401138305664 L 5.963520050048828 8.732359886169434 C 6.047160148620605 9.033450126647949 5.985229969024658 9.356340408325195 5.796130180358887 9.605130195617676 C 5.607029914855957 9.853919982910156 5.3125 10 5 10 L 0 10 C -0.3125 10 -0.607029914855957 9.853919982910156 -0.7961301803588867 9.605130195617676 C -0.9852299690246582 9.356340408325195 -1.047160148620605 9.033450126647949 -0.9635200500488281 8.732359886169434 L 1.536479949951172 -0.2676401138305664 C 1.656709909439087 -0.7004604339599609 2.050790071487427 -1 2.5 -1 Z"/>
          </g>
          <g id="Polygon_5-3" data-name="Polygon 5" class="cls-12" transform="translate(939.874 279) rotate(70)">
            <path class="cls-18" d="M 5.640389919281006 10.5 L 5 10.5 L 0 10.5 L -0.6403899788856506 10.5 L -0.4850699901580811 9.878729820251465 L 2.014930009841919 -0.1212700009346008 L 2.985069990158081 -0.1212700009346008 L 5.48507022857666 9.878729820251465 L 5.640389919281006 10.5 Z"/>
            <path class="cls-19" d="M 2.5 0 L 0 10 L 5 10 L 2.5 0 M 2.5 -1 C 2.958869934082031 -1 3.358850002288818 -0.6877002716064453 3.470139980316162 -0.2425403594970703 L 5.970139980316162 9.75745964050293 C 6.044829845428467 10.05620956420898 5.977709770202637 10.37269973754883 5.788209915161133 10.61540985107422 C 5.598700046539307 10.85812950134277 5.307940006256104 11 5 11 L 0 11 C -0.3079400062561035 11 -0.5987000465393066 10.85812950134277 -0.7882099151611328 10.61540985107422 C -0.9777097702026367 10.37269973754883 -1.044829845428467 10.05620956420898 -0.9701399803161621 9.75745964050293 L 1.529860019683838 -0.2425403594970703 C 1.641149997711182 -0.6877002716064453 2.041130065917969 -1 2.5 -1 Z"/>
          </g>
        </g>
        <path id="Path_104-3" data-name="Path 104" class="cls-4" d="M1792.344,142.763l-7.712-3.265,6.714.969Z" transform="translate(-1227.079 67.801)"/>
        <path id="Path_105-3" data-name="Path 105" class="cls-4" d="M1793.008,142.9l-8.376-3.405,7.175,1.238Z" transform="translate(-59.798 -1475.175) rotate(65)"/>
        <path id="Path_106-3" data-name="Path 106" class="cls-4" d="M8.292-.338.734,3.068l6.29-1.38Z" transform="matrix(-0.996, -0.087, 0.087, -0.996, 577.12, 210.889)"/>
        <path id="Path_107-3" data-name="Path 107" class="cls-4" d="M1424,71.1l2.584-.308-4.6,6.3Z" transform="translate(-861 142)"/>
        <path id="Path_108-3" data-name="Path 108" class="cls-4" d="M1424.253,71.1l-2.508-.307,4.522,6.3Z" transform="translate(-853 142)"/>
      </g>
      <line id="Line_23" data-name="Line 23" class="cls-11" x2="15" y2="14" transform="translate(608.5 160.5)"/>
      <path id="Path_112" data-name="Path 112" class="cls-4" d="M1793.62,49.946l-5.354,43.16h59.655l-4.976-43.16Z" transform="translate(-1213 65)"/>
      <path id="Path_111" data-name="Path 111" d="M1808.821,85.736h18.734l1.6,2.994h-22.252Z" transform="translate(-1213 64)"/>
      <path id="Path_113" data-name="Path 113" class="cls-4" d="M1848.8,93.107h2.127l-5.853-43.284h-1.424Z" transform="translate(-1213 65)"/>
      <path id="Path_114" data-name="Path 114" class="cls-4" d="M1845.774,93.107h-2.127l5.853-43.284h1.424Z" transform="translate(-1271 65)"/>
      <path id="Path_115" data-name="Path 115" d="M1794.6,59.293l23.729,9.631,23.6-9.247v8.131l-23.6,11.259L1794.6,67.809Z" transform="translate(-1213 64)"/>
      <path id="Path_116" data-name="Path 116" class="cls-13" d="M1795.71,60.87V66.9l7.1,3.561V63.786Z" transform="translate(-1213 64)"/>
      <path id="Path_120" data-name="Path 120" class="cls-13" d="M1802.333,61.128v6.427l-7.216,3.339V64.208Z" transform="translate(-1174.317 63.674)"/>
      <path id="Path_117" data-name="Path 117" class="cls-13" d="M1812.024,67.837l-8.362-3.711v6.814l8.362,4.043Z" transform="translate(-1213 64)"/>
      <path id="Path_119" data-name="Path 119" class="cls-13" d="M1803.662,67.837l8.362-3.27v6.362l-8.362,4.053Z" transform="translate(-1192.462 64)"/>
      <path id="Path_118" data-name="Path 118" class="cls-13" d="M1822.9,68.3l-4.641,2.077L1813.34,68.3v7.233l4.922,2.258,4.641-2.258Z" transform="translate(-1213 64)"/>
      <path id="Path_121" data-name="Path 121" d="M1783.876,80.261l-6.933-.848-3.887,1.976-3.1,3.757-1.847,2.8-5.262,5.475h-2.772l-1.088,2.341,1.088,2.758v1.617l-4.135,3.424h3.047l2.31-2.469.06-2.168-1.026-2.551.533-1.659,2.047-.147,5.878-5.531.607-.8,3.542-4.674,3.757-2.449,7.2.585-.006-1.409" transform="translate(-1211 65.999)"/>
      <path id="Path_124" data-name="Path 124" d="M1755.962,80.261l6.933-.848,3.887,1.976,3.1,3.757,1.847,2.8,5.262,5.475h2.772l1.088,2.341-1.088,2.758v1.617l4.135,3.424h-3.047l-2.31-2.469-.06-2.168,1.026-2.551-.533-1.659-2.047-.147-5.878-5.531-.607-.8-3.542-4.674-3.757-2.449-7.2.585.006-1.409" transform="translate(-1118 64.999)"/>
      <path id="Path_122" data-name="Path 122" d="M1784.63,84.381l-.973,6.506-3.9.78-2.4.881-2.1,2.223-.744,2.619-.287,2.687-1.658,2.646v1.71h-6.712l3.951-5.3.745-2.386.356-2.74,1.326-2.342,1.76-2.251,3.027-1.732,2.456-.585,2.436-1.2Z" transform="translate(-1212 65)"/>
      <path id="Path_123" data-name="Path 123" d="M1765.854,84.381l.973,6.506,3.9.78,2.4.881,2.1,2.223.744,2.619.287,2.687,1.658,2.646v1.71h6.712l-3.951-5.3-.745-2.386-.356-2.74-1.326-2.342-1.76-2.251-3.027-1.732-2.456-.585-2.436-1.2Z" transform="translate(-1128 64)"/>
      <path id="Path_125" data-name="Path 125" class="cls-14" d="M1814.844,43.665l3.566-29.592,3.615,29.592Z" transform="translate(-1213 64)"/>
      <line id="Line_24" data-name="Line 24" class="cls-15" x1="5" y2="5" transform="translate(602.5 96.5)"/>
      <line id="Line_25" data-name="Line 25" class="cls-15" x2="5" y2="5" transform="translate(603.5 96.5)"/>
      <line id="Line_26" data-name="Line 26" class="cls-15" x1="3" y2="3" transform="translate(603.5 90.5)"/>
      <line id="Line_27" data-name="Line 27" class="cls-15" x2="3" y2="3" transform="translate(604.5 90.5)"/>
      <path id="Path_126" data-name="Path 126" d="M1815.884,38.254l-.392,2.368,2.035,1.127-.287,1.972,2.257-.111-.238-1.862,2.1-1.92-.474-1.784-2.484,2.2Z" transform="translate(-1213 64)"/>
      <path id="Path_127" data-name="Path 127" d="M1740.727,105.128h5.793V99.2l-2.531-3.046-.578-2.539-10.758-6.009-13.006.953-6.829,3.734-4,3.862-1.842,3.046-2.07,1.023-1.284,3.749h10.053l1.956-4.772h2.2l4.4-3.046,3.006-.658h4.79l3.444,2.344h2.925l3.28,2.383Z" transform="translate(-1214 65)"/>
      <path id="Path_128" data-name="Path 128" d="M1709.419,105.128h-5.793V99.2l2.531-3.046.578-2.539,10.758-6.009,13.006.953,6.829,3.734,4,3.862,1.842,3.046,2.07,1.023,1.132,4.358h-9.6l-2.261-5.381h-2.2l-4.4-3.046-3.006-.658h-4.79l-3.444,2.344h-2.925l-3.28,2.383Z" transform="translate(-1027 64)"/>
      <path id="Path_129" data-name="Path 129" class="cls-16" d="M1690.735,65.067,1685.421,50.2l-1.317-3.863-.912-3.549-.587-4.058v-6.79l.587-2.713,1.714-.74,1.681.74.748,2.167V41.487h-1.346l.6,4.851Z" transform="translate(-1174 139)"/>
      <path id="Path_132" data-name="Path 132" class="cls-16" d="M1682.6,65.067l5.314-14.866,1.317-3.863.912-3.549.587-4.058v-6.79l-.587-2.713-1.714-.74-1.681.74-.748,2.167V41.487h1.346l-.6,4.851Z" transform="translate(-988.755 139)"/>
      <path id="Path_130" data-name="Path 130" class="cls-16" d="M1682.106,31.98l-.419,2.662v2.435l.419,3.005.5,2.973.479,3,1.063,3.892,1.111,3.308,1.021,2.74.865,3.017-1.522-2.633-1.476-2.848-1.542-3.262-1.505-3.71-1.273-3.509-.8-3.31-.359-2.427V34.642l.359-2.662.8-.828,1.273-.251Z" transform="translate(-1174.575 136)"/>
      <path id="Path_133" data-name="Path 133" class="cls-16" d="M1684.058,31.98l.419,2.662v2.435l-.419,3.005-.5,2.973-.689,3.075-.853,3.822-1.295,3.286-1.107,2.829-.934,2.586,2.042-2.323,1.295-2.794,1.542-3.262,1.505-3.71,1.273-3.509.8-3.31.359-2.427V34.642l-.359-2.662-.8-.828-1.273-.251Z" transform="translate(-981.003 136)"/>
      <path id="Path_131" data-name="Path 131" class="cls-16" d="M1677.45,31.955l-.413-.4h-.6l-.905.606-.685,1.313.351,4.713.93,3.786,1.319,3.965,3.112,6,2.664,5.307,3.641,5.737.971.821-6.364-12.685-3.1-8.185-.925-3.437v-7.54Z" transform="translate(-1174 136)"/>
      <path id="Path_134" data-name="Path 134" class="cls-16" d="M1685.238,31.955l.413-.4h.6l.905.606.685,1.313-.351,4.713-.93,3.786-1.319,3.965-3.112,6-2.664,5.307-3.641,5.737-.971.821,6.364-12.685,3.1-8.185.925-3.437V36.828l-.278-4.235Z" transform="translate(-978.103 136)"/>
      <path id="Path_135" data-name="Path 135" class="cls-4" d="M1673.61,32.216v4.621H1635.88l-5.109-4.621Z" transform="translate(-1174.001 138)"/>
      <path id="Path_139" data-name="Path 139" class="cls-4" d="M1632.275,30.595,1630.8,34.27l34.079,2.665,3.782-3.419Z" transform="translate(786.595 -1460.981) rotate(90)"/>
      <path id="Path_202" data-name="Path 202" class="cls-4" d="M1632.6,31.306l-1.8,2.964,39.964,3.285.249-3.563Z" transform="matrix(0.998, -0.07, 0.07, 0.998, -918.235, 253.145)"/>
      <path id="Path_136" data-name="Path 136" class="cls-4" d="M1630.081,33.535l5.68,4.864,13.855,28.51-2.4,1.4Z" transform="translate(-1174.001 138)"/>
      <path id="Path_140" data-name="Path 140" class="cls-4" d="M1630.081,33.535l5.68,4.864,21.018,43.093-1.46,3.787Z" transform="matrix(0.438, -0.899, 0.899, 0.438, -50.152, 1658.486)"/>
      <path id="Path_137" data-name="Path 137" class="cls-5" d="M1673.61,38.2l.245,2.76.641,1.978,1.415,2.948,1.6,2.838,1.712,3.343,1.443,3.027,1.481,2.875,1.578,2.485,1.343,2.29,2.181,2.974h-36.9l-13.4-27.518Z" transform="translate(-1174.001 138)"/>
      <path id="Path_138" data-name="Path 138" class="cls-5" d="M1650.595,38.2l-.245,2.76-.641,1.978-1.415,2.948-1.6,2.838-1.712,3.343-1.443,3.027-1.481,2.875-1.578,2.485-1.343,2.29-2.181,2.974h49.355l.937-27.518Z" transform="translate(-937.876 138)"/>
      <line id="Line_28" data-name="Line 28" class="cls-6" x1="3" y2="76" transform="translate(478.5 208.5)"/>
      <line id="Line_29" data-name="Line 29" class="cls-6" x2="3" y2="76" transform="translate(505.5 209.5)"/>
      <line id="Line_30" data-name="Line 30" class="cls-6" x2="21" y2="18" transform="translate(483.5 208.5)"/>
      <line id="Line_31" data-name="Line 31" class="cls-6" y1="20" x2="25" transform="translate(480.5 226.5)"/>
      <line id="Line_32" data-name="Line 32" class="cls-6" x2="26" y2="20" transform="translate(481.5 227.5)"/>
      <line id="Line_33" data-name="Line 33" class="cls-6" x2="27" y2="20" transform="translate(480.5 245.5)"/>
      <line id="Line_34" data-name="Line 34" class="cls-6" x2="26" y2="20" transform="translate(479.5 265.5)"/>
      <path id="Path_201" data-name="Path 201" class="cls-6" d="M0,20" transform="translate(706.5 267.5)"/>
      <line id="Line_35" data-name="Line 35" class="cls-6" x1="25" y2="19" transform="translate(481.5 266.5)"/>
      <path id="Path_142" data-name="Path 142" d="M1637.878,150.4h68.858L1695.4,224.41l3.3.635,2.853,2.759-.877,22.959h-5.28l.783,17.116-5.473,6.944H1639.38l-6.465-4.88v-40.5l4.964-5.028Z" transform="translate(-1178 134)"/>
      <path id="Path_204" data-name="Path 204" d="M1637.878,150.4h68.858L1695.4,224.41l3.3.635,2.853,2.759v30.779h-7.611v9.763l-5.817,6.477H1639.38l-6.465-4.88v-40.5l4.964-5.028Z" transform="translate(2405.65 242.221) rotate(180)"/>
      <path id="Path_144" data-name="Path 144" d="M1654.245,75.145l-2.874,4.98v2.891l1.777,1.491,1.689.415,1.094,2.964,1.934,3.4v-3.4l-1.021-1.83-1.538-2.7-1.48-.341-1.188-2.185,3.294-5.685Z" transform="translate(-1179 135)"/>
      <path id="Path_145" data-name="Path 145" d="M1650.757,71.031l-.964-1.862-.921,3.6-1.317,2.412-1.663,2.6-.908,2.923.2,2.857.705,2.014,1.663,1.489,1.645,1.317,1.532,2.212,1.564.35.638,1.419v2.216l-.638,1.366-.2,1.717.2,1.493,1.982,1.907,1.884,1.9,1.3,1.045V102.27l-4.165-4,.161-1.615.6-1.366.223-1.513-.223-2.26-.6-1.083-1.357-.942-.832-.223-.953-1.208-1.534-1.7-1.774-1.394-.571-1.639-.373-2.512.8-2.41,1.434-2.082,1.172-1.815.6-1.29Z" transform="translate(-1179 135)"/>
      <path id="Path_146" data-name="Path 146" d="M1656.7,102.307l-1.73,5.108-.964,2.411-1.644,2.706-2.566,3.91-1.16,1.8-.315,4,.315,1.332,1.16.53.585,1.79,1.612.692,1.46,1.147,1.712,1.216.214,4.454-4.111,2.433-2.632.565h-1.776l-1.256.378-.9,1.491-.275,1.728-1.1,1.764-.3,1.508.57,1.6.462,2.179v3.7h1.179v-3.7l-.535-1.06-.275-1.119-.369-1.957,1.179-1.53,1.176-2.234.443-1.243,1.776-.322,2.632-.375,1.981-1,1.915-1.272,1.178-.883V128.5l-1.178-1.323-.816-.59-1.1-.943-1.56-.92-.421-.878-.528-1.306-.944-.495V119.9l.234-1.654.989-1.145.974-1.159,1.044-1.639.969-1.768.964-1.241.481-1.466.506-1.737.454-1.369,1.019-2.765Z" transform="translate(-1179 135)"/>
      <path id="Path_147" data-name="Path 147" d="M1679.558,75.145h2.285L1660.69,92V89.534l10.511-7.705Z" transform="translate(-1179 135)"/>
      <path id="Path_148" data-name="Path 148" d="M1683.52,112.746l-9.313,7.207-14.592,10.909v-1.908l10.343-7.231,3.526-2.755,9.082-6.959Z" transform="translate(-1179 135)"/>
      <path id="Path_149" data-name="Path 149" d="M1655.179,138.685l-4.005,1.367-1.526.921-1.134,1.546-.873,1.581v3.179l.273,3.215h.6v-5.968l.734-1.276.787-.976,1.47-1.3,3.674-1.213Z" transform="translate(-1178 135)"/>
      <path id="Path_150" data-name="Path 150" d="M1655.179,141.516l-1.571,1.073-1.025,1.149-.937,1.4-.522,1.58v3.365h1.186v-3.365l.272-1.331.7-.938.868-1.123,1.032-.427Z" transform="translate(-1178 135)"/>
      <path id="Path_151" data-name="Path 151" d="M1661.313,131.4l1.77-1.1,1.641-.572,11.041-.286,1.086-.79.236-1.687,1.976-3.266.368-1.5.249-2.32,4.29-4.321.215-2.284-4.754,4.714-1.017,1.557-.465,2.374-.762,1.491-1.423,2.782v1.518l-2.545.342H1665.7l-1.753.6-1.61,1.077-1.717,1.29Z" transform="translate(-1179 135)"/>
      <path id="Path_152" data-name="Path 152" d="M1691.353,150.274l.8-2.389,1.1-1.959.315-2.312v-3.729l-1.059-1.963,1.059-2.645v-1.726l-5.952-4.223-.444-4.582,4.591-7.083-.413-1.346-1.187-.41v-2.029l.689-1.623.911-1.605-.413-1.42-1.187-1.985-3.926-2.421v-2.312l4.615,3.261.911,1.472.745,1.326.744,1.409v1.81l-1.1,1.3-.386,1.388.745,1.429.744,1.1v1.54l-.744,1.113-.745,1.105-2.907,4.5V126.8l.556,1.56,1.938,1.268,3.122,2.5.854,1.425v2.712l-.854,1.319.385,1.325.469,1.284v2.489l-.469,3.563-.785,1.642-.819,1.552v.838Z" transform="translate(-1179 135)"/>
      <path id="Path_153" data-name="Path 153" d="M1690.784,75.45h2.7v5.067l-1.74,1.271-.963,1.021-.98,1.336-.894,1.737-.818,1.691-.775,1.9-1.118,2.384V84.145l1.118-2.357,1.593-2.025,1.332-1.619Z" transform="translate(-1179 135)"/>
      <line id="Line_44" data-name="Line 44" class="cls-11" x1="5" y2="3" transform="translate(692.5 181.5)"/>
      <line id="Line_45" data-name="Line 45" class="cls-11" x1="5" transform="translate(686.5 210.5)"/>
      <path id="Path_165" data-name="Path 165" class="cls-17" d="M1640.573,226.352h52.686l5.054,3.077v18.286h-5.054v18.333l-4.581,5.587h-48.106l-4.939-2.814V231.176Z" transform="translate(-1177.634 134)"/>
      <path id="Path_207" data-name="Path 207" class="cls-17" d="M4.939,0H57.625l5.054,3.077V28.79H55.651v10.9l-4.006,5.594H4.939L0,42.47V4.825Z" transform="translate(769.679 14.635) rotate(180)"/>
      <line id="Line_46" data-name="Line 46" class="cls-11" y2="10" transform="translate(516.125 374.5)"/>
      <line id="Line_47" data-name="Line 47" class="cls-14" y1="15" transform="translate(471.5 392.5)"/>
      <line id="Line_48" data-name="Line 48" class="cls-14" y1="15" transform="translate(487.5 392.5)"/>
      <line id="Line_49" data-name="Line 49" class="cls-14" y1="15" transform="translate(502.5 392.5)"/>
      <path id="Path_166" data-name="Path 166" class="cls-4" d="M1641.069,225.51l3.313-2-.676-67.579h44.643l-4.194,69.58h4.194l3.63-72.973h-50.91Z" transform="translate(-1178 134)"/>
      <path id="Path_205" data-name="Path 205" class="cls-4" d="M0,72.973l3.313-2L2.637,3.393H47.28l-4.194,69.58H47.28L50.91,0H0Z" transform="translate(762.979 87.51) rotate(180)"/>
      <path id="Path_167" data-name="Path 167" class="cls-5" d="M1645.436,157.65h7.8l3.252,29.85,5.4-3.375-.632,34.443,10.893-42.206-4.621,2.473,2.651-21.185h17.1l-4.048,66.071h-37.8Z" transform="translate(-1178 134)"/>
      <path id="Path_206" data-name="Path 206" class="cls-5" d="M0,0H41.843L37.8,66.071H0Z" transform="translate(758.279 82.721) rotate(180)"/>
      <line id="Line_50" data-name="Line 50" class="cls-11" x2="4" y2="5" transform="translate(462.5 285.5)"/>
      <g id="Group_11" data-name="Group 11" transform="translate(698.914 -31.017)">
        <line id="Line_60" data-name="Line 60" class="cls-6" y1="76.806" x2="3" transform="translate(48.586 122.517)"/>
        <path id="Path_192" data-name="Path 192" class="cls-6" d="M3.038,77.292,0,0" transform="translate(21.586 122.323)"/>
        <line id="Line_70" data-name="Line 70" class="cls-6" x1="21" y1="18" transform="translate(25.586 181.323)"/>
        <line id="Line_68" data-name="Line 68" class="cls-6" x1="25" y2="20" transform="translate(23.586 162.323)"/>
        <line id="Line_69" data-name="Line 69" class="cls-6" x1="26" y1="20" transform="translate(22.586 160.323)"/>
        <line id="Line_67" data-name="Line 67" class="cls-6" x1="27" y1="20" transform="translate(22.586 142.323)"/>
        <path id="Path_203" data-name="Path 203" class="cls-6" d="M26,20-.878.137" transform="translate(24.586 122.323)"/>
        <line id="Line_66" data-name="Line 66" class="cls-6" y1="18.806" x2="26" transform="translate(23.586 122.517)"/>
        <path id="Path_198" data-name="Path 198" d="M3.861,16.837l3.466-5.6V8.342L5.55,6.851,3.861,6.436,2.767,3.472,0,0,.365,3.15,1.854,5.3,3.392,8l1.48.341,1.188,2.185-3.748,6.31Z" transform="translate(50.751 182.465)"/>
        <path id="Path_197" data-name="Path 197" d="M6.847,33.853l.536,1.138,1.86-3.762,1.317-2.412,1.663-2.6.908-2.923-.2-2.857-.705-2.014L10.56,16.938,8.915,15.621,7.383,13.409l-1.564-.35L5.182,11.64V9.424l.638-1.366.2-1.717-.2-1.493L3.837,2.942l-1.884-1.9L.655,0,0,1.622,4.819,5.727,4.658,7.342l-.6,1.366-.223,1.513.223,2.26.6,1.083,1.357.942.832.223L7.8,15.936l1.534,1.7,1.774,1.394.571,1.639.373,2.512-.8,2.41L9.821,27.677,8.649,29.492l-.6,1.29Z" transform="translate(51.333 169.823)"/>
        <path id="Path_191" data-name="Path 191" d="M0,48.487l3.179-5.158.964-2.411,1.644-2.706L8.352,34.3l1.16-1.8.315-4L9.512,27.17l-1.16-.53-.585-1.79-1.612-.692L4.7,23.01,3.179,21.9,2.7,18.3,6.88,14.907l2.632-.565h1.776l1.256-.378.9-1.491.275-1.728.3-2.19V6.426l-.571-3.1L12.906-.883l2.326-1.16V-4.986l-1.791.993-1.353,1.95L11.73-.6l.357,3.636L13.44,6.426l-.535,2.936L11.73,11.6l-.443,1.243-1.776.322-2.632.375-1.981,1L2.984,15.807,1.355,17.465V21.9l1.628,1.671.816.59,1.1.943,1.56.92.421.878L7.408,28.2l.944.495v2.149L8.118,32.5l-.989,1.145-.974,1.159L5.111,36.444l-.969,1.768-.964,1.241L2.7,40.919l-.506,1.737-.454,1.369L0,46.8Z" transform="translate(51.297 123.079)"/>
        <path id="Path_195" data-name="Path 195" d="M1.563,17.638H-.681L21.153,0V2.463L10.642,10.168Z" transform="translate(27.605 181.826)"/>
        <path id="Path_194" data-name="Path 194" d="M0,18.116l9.313-7.207L23.9,0V1.908L13.561,9.139l-3.526,2.755L.953,18.853Z" transform="translate(25.928 142.96)"/>
        <path id="Path_190" data-name="Path 190" d="M0,12.142l5.319-1.7L6.845,9.52,7.979,7.975,8.8,5.226,8.4.7,5.319-3.52v1l2.66,3.75.2,3.775L7.245,7.243l-.787.976-1.47,1.3L0,11.154Z" transform="translate(52.955 123.329)"/>
        <path id="Path_189" data-name="Path 189" d="M0,8.878,2.85,7.494,3.875,6.345l.937-1.4.522-1.58V-1.609H4.147V3.365L3.875,4.7l-.7.938L2.311,6.757,0,7.721Z" transform="translate(52.99 123.739)"/>
        <path id="Path_193" data-name="Path 193" d="M22.872,0,21.1,1.1l-1.641.572L8.421,1.954l-1.086.79L7.1,4.431,5.122,7.7,4.754,9.2,4.5,11.516.215,15.837,0,18.121l4.754-4.714L5.771,11.85l.465-2.374L7,7.985,8.421,5.2V3.685l2.545-.342h7.526l1.753-.6,1.61-1.077L23.571.378Z" transform="translate(25.262 142.423)"/>
        <path id="Path_199" data-name="Path 199" d="M3.976-1.347l-.8,3.736-1.1,1.959L1.758,6.66v3.729l1.059,1.963L1.758,15v1.726L7.71,20.946l.444,4.582L3.563,32.612l.413,1.346,1.187.41V36.4L4.473,38.02l-.911,1.605.413,1.42,1.187,1.985,3.926,2.421v2.312L4.473,44.5l-.911-1.472L2.818,41.7,2.073,40.3v-1.81l1.1-1.3L3.563,35.8l-.745-1.429-.744-1.1V31.73l.744-1.113.745-1.105,2.907-4.5V23.478l-.556-1.56L3.976,20.65l-3.122-2.5L0,16.723V14.011l.854-1.319L.469,11.367,0,10.083V7.594L.469,4.031l.785-1.642L2.073.838l.744-2.184Z" transform="translate(14.12 123.548)"/>
        <path id="Path_196" data-name="Path 196" d="M2.7,16.727l-.23.16L0,17.3v-5.96l1.74-1.271L2.7,9.053l.98-1.336.894-1.737L5.4,4.288l.775-1.9L7.289,0V7.717L6.171,10.074,4.578,12.1,3.245,13.717Z" transform="translate(15.96 181.96)"/>
        <line id="Line_71" data-name="Line 71" class="cls-14" y2="16" transform="translate(29.586 -0.483)"/>
        <line id="Line_73" data-name="Line 73" class="cls-14" y2="16" transform="translate(59.586 -0.483)"/>
        <line id="Line_72" data-name="Line 72" class="cls-14" y2="16" transform="translate(44.586 -0.483)"/>
      </g>
      <line id="Line_51" data-name="Line 51" class="cls-11" x1="3" y2="3" transform="translate(511.5 286.5)"/>
      <path id="Path_208" data-name="Path 208" class="cls-14" d="M766.269,272.488h15.5V261.447H760.435" transform="translate(-47 -276.347)"/>
    </g>
  </g>
</svg>
